# xmcd CD database file
#
# Track frame offsets:
#	150
#	13452
#	37806
#	61999
#	83520
#	109947
#	137828
#	154565
#	173717
#	185370
#	209289
#
# Disc length: 3127 seconds
#
# Revision: 0
# Processed by: cddbd v1.5.2PL0 Copyright (c) Steve Scherf et al.
# Submitted via: CDex 1.51
#
DISCID=890c350b
DTITLE=Dave Davies and Russ Davies - The Aschere Project
DYEAR=2010
DGENRE=New Age
TTITLE0=The Kakshisa Cipher
TTITLE1=Two Worlds
TTITLE2=Love Will Change
TTITLE3=Remember Me
TTITLE4=I'll Get By
TTITLE5=We Can Do This Together
TTITLE6=Echoes
TTITLE7=We Are The Ancestors
TTITLE8=Mirrors
TTITLE9=Blessed Of All Nights
TTITLE10=Valley Of The Shadows
EXTD=YEAR: 2010
EXTT0=
EXTT1=
EXTT2=
EXTT3=
EXTT4=
EXTT5=
EXTT6=
EXTT7=
EXTT8=
EXTT9=
EXTT10=
PLAYORDER=
